<?xml version="1.0" encoding="utf-8"?>
<!-- Generator: Adobe Illustrator 19.2.1, SVG Export Plug-In . SVG Version: 6.00 Build 0)  -->
<svg version="1.1" id="Calque_1" xmlns="http://www.w3.org/2000/svg" xmlns:xlink="http://www.w3.org/1999/xlink" x="0px" y="0px"
	 width="128px" height="128px" viewBox="0 0 128 128" style="enable-background:new 0 0 128 128;" xml:space="preserve">
<style type="text/css">
	.st0{display:none;}
	.st1{display:inline;}
	.st2{fill:none;stroke:#1D1D1B;stroke-width:2;stroke-miterlimit:10;}
	.st3{display:inline;fill:none;stroke:#1D1D1B;stroke-width:2;stroke-linecap:round;stroke-linejoin:round;stroke-miterlimit:10;}
	.st4{fill:none;stroke:#1D1D1B;stroke-width:1.7;stroke-miterlimit:10;}
	.st5{display:inline;fill:none;stroke:#1D1D1B;stroke-width:2;stroke-miterlimit:10;}
	.st6{display:inline;fill:none;stroke:#1D1D1B;stroke-width:3.8116;stroke-linecap:round;stroke-miterlimit:10;}
	.st7{display:inline;fill:none;stroke:#1D1D1B;stroke-width:1.9031;stroke-miterlimit:10;}
	.st8{fill:#1D1D1B;}
	.st9{display:inline;fill:#FFFFFF;stroke:#1D1D1B;stroke-width:2;stroke-miterlimit:10;}
	.st10{fill:none;stroke:#1D1D1B;stroke-width:3.8631;stroke-linecap:round;stroke-miterlimit:10;}
	.st11{fill:none;stroke:#1D1D1B;stroke-width:1.9316;stroke-miterlimit:10;}
	.st12{fill:none;stroke:#1D1D1B;stroke-width:2;stroke-linecap:round;stroke-linejoin:round;stroke-miterlimit:10;}
	.st13{fill:none;stroke:#ED1C24;stroke-width:2;stroke-miterlimit:10;}
	.st14{fill:none;stroke:#ED1C24;stroke-width:5.3506;stroke-miterlimit:10;}
	.st15{fill:none;stroke:#ED1C24;stroke-width:1.869;stroke-miterlimit:10;}
	.st16{fill:none;stroke:#ED1C24;stroke-width:1.8617;stroke-miterlimit:10;}
	.st17{fill:none;stroke:#ED1C24;stroke-width:2;stroke-linecap:square;stroke-miterlimit:10;}
	.st18{fill:none;stroke:#ED1C24;stroke-width:1.1752;stroke-miterlimit:10;}
	.st19{fill:#ED1C24;stroke:#ED1C24;stroke-width:1.541;stroke-miterlimit:10;}
	.st20{fill:none;stroke:#ED1C24;stroke-width:3.2;stroke-miterlimit:10;}
	.st21{fill:none;stroke:#ED1C24;stroke-width:2;stroke-linecap:round;stroke-linejoin:round;stroke-miterlimit:10;}
	.st22{fill:#ED1C24;}
</style>
<g id="Calque_2" class="st0">
</g>
<g id="Calque_3" class="st0">
	<g class="st1">
		<path class="st2" d="M32.9,123c0,0,39.8-107.7,42.4-114.6c2.6-6.9,8-5.7,11.9-4.3c3.8,1.4,6.3,4.3,3.3,12.3s-26,70.5-26,70.5
			l-4.8,2.2c0,0-4.9,13.2-6.9,18.8C50.7,113.4,48.4,115.9,32.9,123z"/>
		<line class="st2" x1="56.8" y1="58.4" x2="75.9" y2="56"/>
		<line class="st2" x1="53.1" y1="68.6" x2="72.1" y2="66.2"/>
		<line class="st2" x1="49.3" y1="78.7" x2="68.4" y2="76.3"/>
		<line class="st2" x1="45.6" y1="88.9" x2="64.6" y2="86.5"/>
	</g>
</g>
<g id="Calque_4" class="st0">
	<g class="st1">
		<path class="st2" d="M80.9,51.9C80.9,40.9,72,32,61,32c-6.2,0-11.7,2.8-15.4,7.2c-3.7-4.4-9.2-7.2-15.4-7.2
			c-11,0-19.9,8.9-19.9,19.9c0,6.6,4.8,13.1,7.9,16.3S45.8,96,45.8,96s23.9-23.9,27.6-27.8"/>
		<polyline class="st2" points="34,59 60.6,59 66.6,45.6 80,71.9 86.7,58.7 117.6,58.7 		"/>
	</g>
</g>
<g id="Calque_5" class="st0">
	<g class="st1">
		<line class="st2" x1="19.3" y1="101.1" x2="30.9" y2="90.1"/>
		<line class="st2" x1="25.1" y1="107.6" x2="36.7" y2="96.6"/>
		<line class="st2" x1="14.8" y1="96.6" x2="30.8" y2="112.5"/>
		<line class="st2" x1="41.3" y1="87.6" x2="47.4" y2="93.7"/>
		<line class="st2" x1="49.8" y1="85.3" x2="53.2" y2="88.7"/>
		<line class="st2" x1="51.5" y1="77.4" x2="57.6" y2="83.5"/>
		<line class="st2" x1="60" y1="75.1" x2="63.4" y2="78.5"/>
		<line class="st2" x1="61.7" y1="67.2" x2="67.8" y2="73.3"/>
		<line class="st2" x1="70.2" y1="64.9" x2="73.5" y2="68.3"/>
		<line class="st2" x1="71.9" y1="57" x2="77.9" y2="63.1"/>
		<line class="st2" x1="22.8" y1="82.1" x2="45.3" y2="104.6"/>
		<path class="st2" d="M26.7,85.9l42.8-41.6c0,0,2.9-1.1,8.4,4.4c5.6,5.6,4.6,9.5,4.6,9.5l-41.5,42"/>
		<path class="st2" d="M74.9,45c0,0,5.4-5.6,8.8-2.4c4.3,4.1-2.1,9.3-2.1,9.3L74.9,45z"/>
		<polygon class="st2" points="82.6,41.7 108.3,16.3 113.2,15.6 84.8,44.2 		"/>
		<path class="st2" d="M113.2,56.5c0,4.2-3.4,7.6-7.6,7.6S98,60.7,98,56.5s7.6-18.7,7.6-18.7S113.2,52.3,113.2,56.5z"/>
	</g>
</g>
<g id="Calque_6" class="st0">
	<g class="st1">
		<path class="st2" d="M53.9,112.8l-24.6-13c-4.1-2.2-5.6-7.2-3.5-11.3l36.9-69.7c2.2-4.1,7.2-5.6,11.3-3.5l24.7,13.1
			c4.1,2.2,5.6,7.2,3.5,11.3l-36.9,69.7C63.1,113.4,58,115,53.9,112.8z"/>
		<ellipse transform="matrix(0.4678 -0.8838 0.8838 0.4678 14.9562 79.101)" class="st2" cx="73.2" cy="27.1" rx="5.3" ry="5.3"/>
		<ellipse transform="matrix(0.4678 -0.8838 0.8838 0.4678 15.8931 97.6522)" class="st2" cx="89" cy="35.6" rx="5.3" ry="5.3"/>
		<ellipse transform="matrix(0.4678 -0.8838 0.8838 0.4678 -3.891 80.0941)" class="st2" cx="64.6" cy="43.3" rx="5.3" ry="5.3"/>
		<ellipse transform="matrix(0.4678 -0.8838 0.8838 0.4678 -2.9541 98.6454)" class="st2" cx="80.4" cy="51.8" rx="5.3" ry="5.3"/>
		<ellipse transform="matrix(0.4678 -0.8838 0.8838 0.4678 -22.8261 81.1473)" class="st2" cx="56" cy="59.5" rx="5.3" ry="5.3"/>
		<ellipse transform="matrix(0.4678 -0.8838 0.8838 0.4678 -21.7321 99.678)" class="st2" cx="71.9" cy="67.9" rx="5.3" ry="5.3"/>
		<ellipse transform="matrix(0.4678 -0.8838 0.8838 0.4678 -41.5986 82.2827)" class="st2" cx="47.5" cy="75.7" rx="5.3" ry="5.3"/>
		<ellipse transform="matrix(0.4678 -0.8838 0.8838 0.4678 -40.6674 100.731)" class="st2" cx="63.3" cy="84.1" rx="5.3" ry="5.3"/>
		
			<ellipse transform="matrix(0.4678 -0.8838 0.8838 0.4678 -58.6547 101.7121)" class="st2" cx="55.1" cy="99.6" rx="5.3" ry="5.3"/>
		<ellipse transform="matrix(0.4678 -0.8838 0.8838 0.4678 -59.5915 83.1608)" class="st2" cx="39.3" cy="91.1" rx="5.3" ry="5.3"/>
	</g>
</g>
<g id="Calque_7" class="st0">
	<g class="st1">
		<polyline class="st2" points="50.3,82.3 12.8,82.3 19.1,47.3 55.3,47.3 60.5,76.4 		"/>
		<circle class="st2" cx="37.2" cy="37.8" r="9.5"/>
	</g>
	<path class="st3" d="M56.3,78.6l-3.4-7.5c0,0-4.2,2.9-4.2,5.5s4,4.8,10.8,1.7c6.8-3.1,8.6-8.5,7.7-10.5S64,63,58.1,63.3"/>
	<line class="st3" x1="67.2" y1="67.8" x2="72.3" y2="77.2"/>
	<path class="st3" d="M115.1,70.6L109.3,59c0,0-10.6,2-19.6,8.3C80.8,73.7,66,83.7,54.9,86.9c-11.1,3.2-17.3-0.9-19.3-4.5
		c2.3,4.8,7.2,14.6,7.2,14.6s6.9,4.3,16.6,1.5s23-10.2,29.9-15.7C96.3,77.4,107.3,72.3,115.1,70.6z"/>
	<line class="st3" x1="47" y1="91.2" x2="50.9" y2="99.5"/>
	<line class="st3" x1="55.2" y1="90.2" x2="59.5" y2="98.6"/>
	<line class="st3" x1="64.5" y1="87" x2="68.9" y2="95.2"/>
	<line class="st3" x1="73.4" y1="81.9" x2="77.8" y2="90.6"/>
	<line class="st3" x1="82.3" y1="76" x2="86.9" y2="84.8"/>
	<line class="st3" x1="90.9" y1="70.2" x2="95.4" y2="79.1"/>
	<line class="st3" x1="99.6" y1="65.8" x2="103.9" y2="74.3"/>
	<line class="st3" x1="59.8" y1="84.9" x2="58" y2="81.1"/>
	<line class="st3" x1="67.8" y1="80.9" x2="65.8" y2="77.1"/>
	<g class="st1">
		<line class="st2" x1="24.9" y1="55.5" x2="24.9" y2="69.5"/>
		<line class="st2" x1="34.5" y1="55.4" x2="25" y2="64.3"/>
		<line class="st2" x1="29.4" y1="60.9" x2="34.8" y2="69.4"/>
		<path class="st2" d="M49,59.5c0,0-1.4-3.5-4.7-3.5s-5.6,2.5-5.6,6.5s3,5.9,5.6,5.9s5.1-1.7,5.1-1.7v-3.9h-4.9"/>
	</g>
	<line class="st3" x1="48.6" y1="77.2" x2="53.2" y2="86.5"/>
</g>
<g id="Calque_8" class="st0">
	<g class="st1">
		<path class="st2" d="M80.6,67.6c0,1.3,0,2.6,0.1,4c0.6,9.6-0.6,19.2-3.6,28.4c-0.7,2.2-1.8,4.3-3.2,6.1c-2.3,3-5.9,2.5-7.5-0.9
			c-1.4-3.1-1.4-6.4-1.3-9.7c0.1-4.6,0.7-9.2,0.8-13.8c0.1-3.5-0.6-6.9-2.4-10c-3.2-5.5-12.7-5.5-15.9,0.2
			c-2.4,4.3-2.4,8.9-2.2,13.6c0.2,5.6,0.2,11.3,0.1,16.9c0,1.1-0.6,2.2-1.1,3.2c-1.5,2.7-4.5,3.2-6.6,1c-1.4-1.5-2.6-3.4-3.3-5.4
			c-3.2-8.9-4.1-18.2-4.2-28c1.2-7-0.3-13.9-3.6-20.6c-2.1-4.4-3.9-9-4.2-14c-0.3-4.7,0.5-9.1,3.2-13c3.2-4.7,9.1-6.7,15-5.3
			c2.2,0.5,4.4,1.2,6.6,2c5.7,1.9,11.3,1.8,16.9-0.1c2.6-0.8,5.2-1.6,7.8-2.1c6.8-1.1,11.7,2.4,14.2,6.7"/>
		<polygon class="st2" points="105.8,38.5 94.5,38.5 94.5,27.2 77.1,27.2 77.1,38.5 65.8,38.5 65.8,55.9 77.1,55.9 77.1,67.2 
			94.5,67.2 94.5,55.9 105.8,55.9 		"/>
	</g>
</g>
<g id="Calque_9" class="st0">
	<g class="st1">
		<g id="dbIMEg_1_">
			<g>
				<path class="st4" d="M73.2,34.3c-8.5,7.4-14.5,16.5-18.7,26.9c-1.1-6.7-2.9-13.2-5.4-19.4S43.4,29.7,39.2,24
					c-1.9,13.8-0.5,26.8,4.4,39.6c-8.7-6.8-18.3-11.3-29.1-13.5c7,10.2,16,17.9,27.5,22.5c-4.5,0.4-9,0.6-13.4,1.3
					c-4.5,0.7-8.8,2-13.2,4.2c9.5,3.1,18.8,3.6,28.2,1.7c-7.1,5.3-11.7,9.8-12.6,12.6c8.7-2.1,16-6.5,22.1-13.2
					c0.5,1.7,0.7,3.3,1.3,4.7c1,2.4,2.2,4.8,3.4,7.2c0.3,0.6,0.8,1.1,1.4,0.2c-2.3-3.9-4.3-7.8-4.7-12.6c8.8,2.7,17.4,2.9,26.3,0.2
					c-5.7-2.8-11.5-4.1-17.5-4.4c4.6-1.6,9.1-3.5,13.1-6.2c4.1-2.7,7.8-5.8,11.1-9.7c-10.1,1.1-19.1,4.4-27.3,9.9
					C68.1,58.4,72.3,46.9,73.2,34.3z"/>
				<path class="st4" d="M73.2,34.3c-1,12.7-5.1,24.2-13.1,34.3c8.2-5.5,17.2-8.8,27.3-9.9c-3.3,3.9-7,7-11.1,9.7s-8.5,4.6-13.1,6.2
					c6,0.4,11.8,1.7,17.5,4.4c-9,2.6-17.6,2.5-26.3-0.2c0.4,4.8,2.4,8.7,4.7,12.6c-0.7,0.9-1.1,0.4-1.4-0.2
					c-1.2-2.4-2.4-4.7-3.4-7.2c-0.6-1.4-0.8-3-1.3-4.7c-6.1,6.6-13.4,11-22.1,13.2c0.9-2.8,5.5-7.2,12.6-12.6
					c-9.5,2-18.8,1.4-28.2-1.7c4.4-2.2,8.8-3.5,13.2-4.2s8.9-0.9,13.4-1.3C30.4,68,21.4,60.3,14.4,50.1c10.8,2.1,20.4,6.7,29.1,13.5
					c-4.8-12.7-6.2-25.8-4.4-39.6c4.2,5.7,7.4,11.6,9.9,17.8s4.3,12.7,5.4,19.4C58.7,50.8,64.7,41.7,73.2,34.3z"/>
			</g>
		</g>
		<g>
			<path class="st4" d="M80.4,81.1c-1.2,0.7-2.4,1.7-3.6,2.8c-4.9,4.9-6.3,11.5-3.2,14.6c1.2,1.2,2.2,2.2,3.4,3.4
				c3.2,3.2,9.7,1.7,14.6-3.2c1.4-1.4,2.5-2.9,3.3-4.4"/>
			<path class="st4" d="M90.6,92.5c-0.7,1-1.5,2-2.4,2.9c-4.9,4.9-11.5,6.3-14.6,3.2"/>
			<path class="st4" d="M83.3,93.4c-1.3,1.3-3.4,1.2-4.7-0.1s-1.4-3.5-0.1-4.7"/>
			<line class="st4" x1="80.5" y1="86" x2="82.3" y2="87.8"/>
			<line class="st4" x1="85.9" y1="91.4" x2="84.1" y2="89.6"/>
			<path class="st4" d="M88.2,63.1c4.1-4.1,12.7-2.3,19.1,4.1s8.3,15,4.1,19.1c-1.5,1.5-2.9,2.9-4.5,4.5c-4.1,4.1-12.7,2.3-19.1-4.1
				s-8.3-15-4.1-19.1C85.3,66,86.7,64.6,88.2,63.1z"/>
			<path class="st4" d="M97.9,78.5c1.7,1.7,4.4,1.6,6.2-0.2c1.8-1.8,1.8-4.5,0.2-6.2"/>
			<line class="st4" x1="101.5" y1="68.9" x2="99.2" y2="71.2"/>
			<line class="st4" x1="94.5" y1="75.9" x2="96.8" y2="73.6"/>
			<path class="st4" d="M88.2,63.1c-4.1,4.1-2.3,12.7,4.1,19.1s15,8.3,19.1,4.1"/>
		</g>
	</g>
</g>
<g id="Calque_10" class="st0">
	<g class="st1">
		<g>
			<path class="st2" d="M68.1,62.1c2-4,3.6-9.4,2-14.6C67.5,38.9,58.4,34,49.7,36.7c-4.9,1.5-8.5,5-10.3,9.4
				c-3.9-2.6-8.9-3.5-13.8-2C17,46.7,12.1,55.8,14.8,64.4c1.6,5.2,6.9,9.2,10.1,10.9s28.3,15.2,28.3,15.2s4.3-8,8.3-15.5"/>
		</g>
		<g>
			<path class="st2" d="M57.9,48.8c-1.6,5.2,0.5,11.5,2.2,14.7C61.7,66.7,74.9,92,74.9,92s24.5-12.8,28.4-15
				c3.9-2.1,8.3-5.8,9.9-10.9c2.7-8.6-2.1-17.8-10.7-20.5c-4.8-1.5-9.9-0.7-13.8,1.9c-1.8-4.4-5.4-7.9-10.3-9.4
				c-2.6-0.8-5.2-0.9-7.6-0.5"/>
		</g>
	</g>
</g>
<g id="Calque_11" class="st0">
	<path class="st5" d="M19.5,56.4c0,0,6.1-2.4,11.6-8.2s21.7-18.3,32.8-9.8c7.9-4.5,16.3-3.6,29.6,7.6c11.5,9.7,14.8,10.4,14.8,10.4
		s-37.1-9-44.5-8.7C56.5,47.9,19.5,56.4,19.5,56.4z"/>
	<path class="st5" d="M28.6,54.3v2c0,0,17.4,2.4,35.4,2.4s33.6-2.2,33.6-2.2v-2.2"/>
	<path class="st3" d="M86.4,63.5c11.7-3,20.6-7.1,20.6-7.1S95.8,71,80,77.8"/>
	<path class="st3" d="M48.4,77.7c-15.6-7-27.6-21.4-27.6-21.4s9.2,4.2,21.1,7.2"/>
	<path class="st5" d="M40.4,57.8c0,0,10.3,34.8,23.5,34.8s23.8-33.9,23.8-33.9v-1.1 M64.5,81.2c-1.4,0-2.6-1.2-2.6-2.6
		s1.2-2.6,2.6-2.6c1.4,0,2.6,1.2,2.6,2.6C67.1,80.1,65.9,81.2,64.5,81.2z"/>
</g>
<g id="Calque_1_1_" class="st0">
	<g class="st1">
		<path class="st2" d="M43,59.8h-7.2c0,0-3.1-33,0-43.4s17.6-16,22.5-10.1C62.2,4.8,68.7,3.2,70,22.1s1.3,38.6,1.3,38.6"/>
		<path class="st2" d="M44.9,25.9c0,0-1.3-2.2,2.8-4.4s13.5-3.8,13.5-7.5c4.4,2.2,10.1,6.3,8.5,13.8s-5.3,16.7-10.4,16
			s-12.9-9.1-12.9-9.1S37.7,30.3,44.9,25.9z"/>
		<path class="st2" d="M88.3,91.8c3.3,5,5.8,10.7,5.3,16.5c-0.9,12.6-8.5,15.7-8.5,15.7"/>
		<path class="st2" d="M60.9,43.8c0,0-3.5,7.8,1.9,11c5.3,3.1,11.6,9.1,17.3,10.7c5.7,1.6,7.9,12.6-3.5,13.2
			c1.4,1.2,3.5,3.1,5.8,5.6"/>
		<path class="st2" d="M49,100.9c-4.1,11.6-5.7,12.4-5,20.9"/>
		<path class="st2" d="M51.8,39.6c0,0-3,9.6-5.8,14"/>
		<ellipse transform="matrix(0.7071 -0.7071 0.7071 0.7071 -36.7925 86.3218)" class="st2" cx="85.8" cy="87.6" rx="5.8" ry="4.6"/>
		<path class="st2" d="M44.4,56.4c0,0,2-6.3,7.4-5.1c5.4,1.3,2.9,9.4,1.6,16.7c-1.3,7.2-1.6,18.2-1.6,18.2s15.8,18.5,22,19.2
			c6.3,0.6,13.2-10.1,13.2,0s-2.6,9.7-17,5.3S41.1,94.7,39.6,90C38,85.3,39.2,66.6,44.4,56.4z"/>
	</g>
</g>
<g id="Calque_12" class="st0">
	<g class="st1">
		<g>
			<g>
				<path class="st2" d="M75.9,31.8c-0.7,1.9-1.6,3-2.3,2.8c-1.6,4.5-4.4,7.3-8.4,7.3s-6.8-2.8-8.4-7.3c-0.7,0.2-1.7-0.9-2.3-2.8
					c-0.7-2-0.8-4,0-4.3c0,0,0,0,0.1,0C53.6,20,55.9,14,63.4,14c1.9,0,5.7,0.6,6.8,2.1c1.8-0.4,5.8,1.9,6.1,4.4
					c0.4,3.3-0.1,5.1-0.3,7l0,0C76.7,27.8,76.6,29.9,75.9,31.8z"/>
				<path class="st2" d="M93.5,82.6l1.8-0.2l-3.7-27.8c0-4.7-4-7-5.5-7.5c-0.3-0.1-0.5-0.2-0.7-0.3c-2.7-0.8-8.3-3.6-11.3-5.2
					c0,0-3.5,5.6-8.9,5.7l0,0l0,0c0,0,0,0-0.1,0c-5.4-0.1-8.9-5.7-8.9-5.7c-3,1.6-8.6,4.4-11.3,5.2c-0.2,0-0.4,0.2-0.7,0.3
					c-1.5,0.6-5.5,2.8-5.5,7.5l-6.1,27.8l1.8,0.2"/>
			</g>
		</g>
	</g>
	<path class="st5" d="M44.6,100.8c0,0,7.3-2.3,7.3-6.6c0,5,0,19.7,0,19.7"/>
	<ellipse class="st5" cx="65.4" cy="98.8" rx="4.5" ry="4.1"/>
	<ellipse class="st5" cx="65.4" cy="108.2" rx="5.8" ry="5.1"/>
	<line class="st5" x1="81.5" y1="97.4" x2="81.5" y2="111.1"/>
	<line class="st5" x1="74.6" y1="104.2" x2="88.4" y2="104.2"/>
</g>
<g id="Calque_13" class="st0">
	<polyline class="st3" points="54.4,59.6 29.5,93.9 39,107.3 63.8,73.1 	"/>
	<path class="st3" d="M51.9,23.9c0,0,4.8,13,10,20.4S98.5,94,98.5,94L89,107.9c0,0-40-56.2-41.8-59c-1.8-2.9-3.5-7.7-0.6-15.1
		s6.2-14.5,17.3-14.5s13.8,4.8,16.4,11.5s4.7,12.4-0.6,20.1c-1.7,2.4-6.2,8.5-6.2,8.5"/>
	<path class="st3" d="M76.5,24.1c0,0-3,8.6-5.5,12.6c-2.4,3.9-6.5,11.1-6.5,11.1"/>
	<path class="st3" d="M54.7,30.4c0,0,7.9-1.2,18.9,0.2"/>
</g>
<g id="Calque_15" class="st0">
	<g class="st1">
		<path class="st2" d="M33.1,20.8c0,0,3,18.2,13.8,25.3c-0.3,6.8,0.3,19.7-8.4,23.4s-19.2,3.6-19.9,12.4s-0.2,24.3-0.2,24.3"/>
		<path class="st2" d="M48.4,20.8c0,0,4.6,13.5,10.7,17.6C64,36.6,79.8,38.2,75,56.2c-1.1,4,6.8,4.7,5.9,15.4
			c-2.3,25.9-20.2,27.6-32.4,26.2S31.2,82.6,28.1,85.3c-3,2.6-2.4,10.8-3,20.9"/>
		<path class="st2" d="M48.4,86.6"/>
	</g>
	<path class="st6" d="M46.8,51.9c0,0,9.6,13.6,28.2,4.3c0,0,13.3-10.9,20.2-8.6c6.9,2.3,11,18.1-7.4,40s2,20.6,10,13.3"/>
	<circle class="st6" cx="104.2" cy="97.4" r="6.5"/>
</g>
<g id="Calque_16" class="st0">
	<g class="st1">
		<g>
			<line class="st2" x1="64.8" y1="34.6" x2="64.8" y2="100.1"/>
		</g>
		<g>
			<line class="st2" x1="90.4" y1="38.5" x2="83.8" y2="104.2"/>
		</g>
		<g>
			<line class="st2" x1="33.3" y1="33.3" x2="45.3" y2="97.4"/>
		</g>
		<path class="st2" d="M28.5,97.4c0,0,8-9.3,35.7-1.4s37.1-0.9,37.1-0.9"/>
	</g>
	<circle class="st5" cx="31.9" cy="28.1" r="5.3"/>
	<circle class="st5" cx="64.8" cy="29.3" r="5.3"/>
	<circle class="st5" cx="91.6" cy="33.3" r="5.3"/>
</g>
<g id="Calque_17" class="st0">
	<g class="st1">
		<path class="st2" d="M44.7,69.2l6-6.4c0,0-5-7.1,2.1-18.3s7.8-23.1,12.6-22.6s5.7,4.3,3.4,8.5s-6.2,13.9-6.2,13.9
			S82,23.5,83.9,20.8c1.8-2.7,8.3-1.2,7.8,3.4"/>
		<line class="st2" x1="22.2" y1="93" x2="33.6" y2="80.9"/>
		<path class="st2" d="M75.7,43.2c0-0.9,16.9-20.3,19.2-22.4s5-1.1,5.9,0s3.1,3,0,6.6c-2,2.3-19,20.6-19,20.6"/>
		<path class="st2" d="M99.6,28.7c0,0,2.6-0.2,3.7,1.4s0.7,4.6-1.5,6.9S88.7,53.2,88.7,53.2"/>
		<path class="st2" d="M100,39.2c0,0,4.1,0,5.2,1.8c1.1,1.7,1.4,4-1.2,7c-2.7,3-16.1,17.1-16.1,17.1s-1.9,3.7-6.2,6.8
			c-4.1,2.9-13.5,5.3-13.5,5.3l-24.6,30.4"/>
	</g>
	<path class="st7" d="M33.9,82.5c0,0-0.4-10.5,1.6-12.6s7.2-0.1,11-0.4"/>
	<g class="st1">
		<g>
			<path class="st8" d="M70.6,71.1c0-0.3,0-0.7,0-1c0-1.2-1.9-1.2-1.9,0c0,0.3,0,0.7,0,1C68.7,72.3,70.6,72.3,70.6,71.1L70.6,71.1z"
				/>
		</g>
	</g>
	<g class="st1">
		<g>
			<path class="st8" d="M71.2,65c0.2-0.4,0.4-0.8,0.5-1.3c0.2-0.5,0.1-1-0.3-1.3c-0.4-0.2-1.1-0.1-1.3,0.3c-0.3,0.6-0.5,1.1-0.7,1.7
				c-0.2,0.5,0.2,1,0.7,1.2C70.6,65.8,71,65.5,71.2,65L71.2,65z"/>
		</g>
	</g>
	<g class="st1">
		<g>
			<path class="st8" d="M76.1,60.8c0.6-0.3,1.2-0.5,1.8-0.8c0.5-0.2,0.8-0.6,0.7-1.2c-0.1-0.4-0.7-0.9-1.2-0.7
				c-0.6,0.3-1.2,0.5-1.8,0.8c-0.5,0.2-0.8,0.6-0.7,1.2C75,60.6,75.6,61,76.1,60.8L76.1,60.8z"/>
		</g>
	</g>
	<g class="st1">
		<g>
			<path class="st8" d="M83.1,60c0.6,0,1.2,0,1.8,0c1.2,0,1.2-1.9,0-1.9c-0.6,0-1.2,0-1.8,0C81.9,58.1,81.9,60,83.1,60L83.1,60z"/>
		</g>
	</g>
	<g class="st1">
		<g>
			<path class="st8" d="M88.3,62.5c0.4,0.1,0.8,0.2,1.2,0.3c1.2,0.3,1.7-1.5,0.5-1.8c-0.4-0.1-0.8-0.2-1.2-0.3
				C87.7,60.4,87.2,62.2,88.3,62.5L88.3,62.5z"/>
		</g>
	</g>
	<ellipse transform="matrix(0.6773 -0.7357 0.7357 0.6773 -40.6986 50.6401)" class="st7" cx="37.4" cy="71.7" rx="0.8" ry="0.5"/>
</g>
<g id="Calque_18" class="st0">
	<g class="st1">
		<g>
			<path class="st2" d="M61.2,42.5c-1.5,0.3-2.7,1.5-2.9,3c0.2,0,0.5,0,0.8,0c0.9,0,1.8,0.6,2.8,1.3c0.8,0.5,1.8,1.1,2.4,1.2
				c0.7,0,1.6-0.6,2.4-1.2c1-0.6,1.9-1.2,2.8-1.3c0.5,0,0.9,0,1.1,0c-0.2-1.6-1.5-2.8-3.1-3L67.2,41c0-0.6-0.1-1.1-0.3-1.6l1.3-0.6
				L67,35.1h-1l0.3,3.1c-0.5-0.4-1.1-0.6-1.8-0.6c-0.8,0-1.4,0.2-1.8,0.6l0.3-3.1h-1.2l-1.2,3.7l1.3,0.6c-0.2,0.5-0.3,1-0.3,1.6
				L61.2,42.5z"/>
		</g>
		<path class="st2" d="M74.7,49.9c0,0,7-8.1,12.8-8.4c5.9-0.3,10.3-10.2,3.2-16.7"/>
		<path class="st2" d="M79.6,56.6c0,0,5.2-1.1,7.9,2c2.7,3.1,3.9,7.6,16.5,3.8"/>
		<path class="st2" d="M100.4,45.2c-6.3,9.9-12.3,7-13.6,6s-9.5,1.9-9.5,1.9"/>
		<path class="st2" d="M83.6,67.8l11.5,14.1c0,0,2.3,11-11.1,20.6"/>
		<path class="st2" d="M53.3,50.8c0,0-7.8-9-13.6-9.3s-10.3-10.2-3.2-16.7"/>
		<path class="st2" d="M49.2,56.6c0,0-6.8-1.1-9.5,2s-3.9,7.6-16.5,3.8"/>
		<path class="st2" d="M26.8,45.2c6.3,9.9,12.3,7,13.6,6s10.7,2.3,10.7,2.3"/>
		<path class="st2" d="M45.7,65.3L32.1,81.9c0,0-2.3,11,11.1,20.6"/>
		<path class="st2" d="M73.8,49c-0.2,0-0.8,0-2.1,0c-0.7,0-1.9,0.8-2.9,1.5c-1.4,0.9-2.9,1.9-4.4,2l0,0h-0.1c0,0,0,0-0.1,0
			c0,0,0,0-0.1,0H64l0,0c-1.5-0.1-3-1-4.4-2c-1-0.7-2.2-1.5-2.9-1.5c-1,0-1.6,0-1.9,0c-4.9,4.8-12.7,15.3-9.4,32.1
			c2.5,12.6,18.8,13.6,18.8,13.6l0,0l0,0l0,0l0,0c0,0,16.3-1,18.8-13.6C86.5,64.3,78.7,53.7,73.8,49z"/>
	</g>
</g>
<g id="Calque_19" class="st0">
	<g class="st1">
		<path class="st2" d="M27.3,46.3h6.5c0,0,6.5-12,15.3-14.7s18.8-4.4,22,9.3"/>
		<path class="st2" d="M56.7,37.9v3c0,0,33.3,0,39.3,0s5.5,9.3,0,9.3s-25.6,0-25.6,0"/>
		<path class="st2" d="M82.4,50.1c0,0,1.7,2,1.5,4.1c-0.2,2-2.4,4.1-5.4,4.1c-6,0-8.2,0-8.2,0"/>
		<path class="st2" d="M78.9,58.3c0,0,1.7,2,1.5,4.1c-0.2,2-2.4,4.1-5.4,4.1c-6,0-8.2,0-8.2,0"/>
		<path class="st2" d="M73.7,66.7c0,0,2.3,1.5,2.3,5.2c0,2.1-2.4,4.1-5.4,4.1c-6,0-8.2,0-8.2,0H50l-9.6-5.1H28"/>
		<line class="st2" x1="39.2" y1="90.4" x2="52" y2="90.4"/>
		<line class="st2" x1="77.5" y1="90.4" x2="90.3" y2="90.4"/>
		<line class="st2" x1="83.9" y1="96.8" x2="83.9" y2="83.9"/>
		<path class="st2" d="M98.9,69.9c0,3.6-2.9,6.5-6.5,6.5s-6.5-2.9-6.5-6.5s6.5-13,6.5-13S98.9,66.3,98.9,69.9z"/>
	</g>
</g>
<g id="Calque_20" class="st0">
	<g class="st1">
		<path class="st2" d="M102.9,88.8V49.6 M31.7,95.5h63.9 M25,49.7v39.2 M96,42.5c-4.8,0-14.9,0-15.6,0c-5.9,0-4.8-0.1-4.9-4.8
			c0-0.6,0-1.2-0.1-1.9c-0.4-2.6-1.9-4.1-4.6-4.1c-4.4,0-8.9-0.1-13.3,0c-2.8,0.1-4.3,1.7-4.6,4.5c-0.2,2,0.2,4.8-0.9,5.7
			c-0.3,0.3-0.7,0.4-1.1,0.5H32.3 M67.8,42.5c-1.2,0.1-2.5,0-3.7,0c-1.2,0-2.5,0-3.7,0c-1.3-0.1-2.8,0.3-2.9-1.8
			c0-2.1,0.4-3.9,2.7-4.1c2.6-0.2,5.2-0.2,7.8,0c2.3,0.2,2.9,1.9,2.9,4C70.9,42.9,69.2,42.4,67.8,42.5z"/>
		<line class="st2" x1="40.2" y1="95.3" x2="40.2" y2="42.3"/>
		<line class="st2" x1="45.4" y1="42.3" x2="45.4" y2="95.3"/>
		<rect x="40.2" y="42.5" class="st2" width="5.2" height="53"/>
		<line class="st2" x1="83.2" y1="95.1" x2="83.2" y2="42.5"/>
		<line class="st2" x1="89.9" y1="42.5" x2="89.9" y2="95.1"/>
	</g>
	<path class="st9" d="M28.1,49.6h-3.7v-7.5h7.5v3.7C31.8,47.9,30.1,49.6,28.1,49.6z"/>
	<path class="st9" d="M31.8,92.4v3.7h-7.5v-7.5H28C30.1,88.7,31.8,90.4,31.8,92.4z"/>
	<path class="st9" d="M99.6,49.6h3.7v-7.5h-7.5v3.7C95.9,47.9,97.5,49.6,99.6,49.6z"/>
	<path class="st9" d="M95.9,92.4v3.7h7.5v-7.5h-3.7C97.5,88.7,95.9,90.4,95.9,92.4z"/>
</g>
<g id="Calque_21" class="st0">
	<g class="st1">
		<path class="st2" d="M44.6,20.3c0,0,3.1,18.5,14,25.7c-0.3,6.8,0.3,20-8.6,23.7s-19.5,3.7-20.2,12.6s-0.2,24.6-0.2,24.6"/>
		<path class="st2" d="M60.1,20.3c0,0,4.7,13.7,10.8,17.8c6.5-2.4,29-1.2,26.2,26.7C94.4,92.7,72.5,99.7,60,98.3S42.6,83,39.5,85.7
			s-2.4,10.9-3.1,21.2"/>
		<path class="st10" d="M52.2,20.3c0,0,3.1,18.6,12.4,21.7C78,46.6,81.8,58.7,78.3,69.5c-3.1,9.5-12.2,12.7-18.1,12"/>
		<line class="st2" x1="56.6" y1="77.9" x2="52.9" y2="73.2"/>
		<line class="st2" x1="54.6" y1="81.2" x2="48.1" y2="80.2"/>
		<line class="st2" x1="57.2" y1="84.5" x2="51.9" y2="89.5"/>
		<path class="st11" d="M60.1,87"/>
		<line class="st2" x1="60.1" y1="85.9" x2="61.7" y2="92.9"/>
	</g>
</g>
<g id="Calque_14" class="st0">
	<g class="st1">
		<path class="st2" d="M84.2,57.4c0-6.1-5-11.1-11.1-11.1c-3.4,0-6.5,1.6-8.6,4c-2-2.5-5.1-4-8.6-4c-6.1,0-11.1,5-11.1,11.1
			c0,3.7,2.7,7.3,4.4,9.1C50.9,68.3,64.6,82,64.6,82S77.9,68.7,80,66.5S84.2,61.1,84.2,57.4z"/>
	</g>
	<g class="st1">
		<polygon class="st2" points="44.4,105.5 35.6,105.5 35.6,81.6 44.4,81.6 44.4,84.1 		"/>
		<path class="st2" d="M44.4,84.1c0,0,11.5-1.1,13.2,5.6c4.9,0,6.7,0,8.6,0s8.5,1.2,8.5,8.1c-8.5,0-20.3,0-20.3,0"/>
		<path class="st2" d="M72.1,91.9h12.2c0,0,10.2,0,9.2,6c-8.6,3.3-27.1,9.5-28.2,10.4c-1.1,0.9-5.3,1.9-8.8,0s-12-6.1-12-6.1"/>
	</g>
	<g class="st1">
		<polygon class="st2" points="84.6,22.4 93.4,22.4 93.4,46.3 84.6,46.3 84.6,43.8 		"/>
		<path class="st2" d="M84.6,43.8c0,0-11.5,1.1-13.2-5.6c-4.9,0-6.7,0-8.6,0s-8.5-1.2-8.5-8.1c8.5,0,20.3,0,20.3,0"/>
		<path class="st2" d="M56.9,36H44.8c0,0-10.2,0-9.2-6c8.6-3.3,27.1-9.5,28.2-10.4s5.3-1.9,8.8,0s12,6.1,12,6.1"/>
	</g>
</g>
<g id="Calque_22" class="st0">
	<g class="st1">
		<g>
			<g>
				<path class="st12" d="M72.3,97.5c-2.5,1.1-5.3,1.7-8.3,1.7c-11,0-18.5-7.6-22.8-19.8c-2,0.6-4.5-2.3-6.3-7.6
					c-1.8-5.3-2.1-11-0.1-11.7c0.1,0,0.1,0,0.2,0c-2.4-20.5,4-36.6,24.1-36.6c5.2,0,15.5,1.5,18.4,5.6c4.9-1.2,15.6,5.1,16.4,12
					c1,8.9-0.2,13.8-0.7,19l0,0c2,0.7,1.7,6.3-0.1,11.7c-1.8,5.2-4.3,8.2-6.3,7.6c-2,5.5-4.6,10.1-7.9,13.5"/>
			</g>
		</g>
	</g>
	<path class="st3" d="M34.8,46.7c0,0,33.8,5.6,41.4-13.3c1.7,2.7,10.9,22.9,17.1,25.8"/>
	<path class="st5" d="M74,84.9c0,0-9-6.1-17.5,1.9"/>
	<path class="st3" d="M92.9,112L80.2,94.2c-0.9-1.3-5.9-4.6-5.9-4.6L69.6,83l-5.4-0.2l6.7,9.2c0,0,1.5,5.8,2.4,7.1L85.9,117
		c1.4,1.9,4.1,2.4,6,1S94.3,113.9,92.9,112z M83.3,109l-6.7-9.2l2.8-2l6.7,9.2L83.3,109z M88.7,114.6c-0.7,0-1.2-0.5-1.2-1.2
		s0.5-1.2,1.2-1.2s1.2,0.5,1.2,1.2C89.9,114.1,89.3,114.6,88.7,114.6z"/>
</g>
<g id="Calque_23" class="st0">
	<g class="st1">
		<path class="st13" d="M70.7,116.9H28.4c-4.2,0-7.6-3.4-7.6-7.6v-78c0-4.2,3.4-7.6,7.6-7.6h5.8"/>
		<path class="st13" d="M96,77.9V31.3c0-4.2-3.4-7.6-7.6-7.6h-5.7"/>
		<circle class="st13" cx="90.1" cy="101.4" r="16.8"/>
		<polyline class="st13" points="83.6,101.1 88.4,108 98.3,94.8 		"/>
		<path class="st13" d="M67.3,18.3C67,13.7,63.1,10,58.4,10s-8.6,3.7-8.9,8.4h-9.9v14.3h37.6V18.3H67.3z"/>
		<line class="st13" x1="46.5" y1="53" x2="84.1" y2="53"/>
		<line class="st13" x1="46.5" y1="67.3" x2="84.1" y2="67.3"/>
		<line class="st13" x1="46.5" y1="81.7" x2="66.1" y2="81.7"/>
		<line class="st13" x1="46.5" y1="96" x2="63.7" y2="96"/>
		<line class="st13" x1="33.6" y1="96" x2="37.1" y2="96"/>
		<line class="st13" x1="33.6" y1="81.7" x2="37.1" y2="81.7"/>
		<line class="st13" x1="33.6" y1="67.3" x2="37.1" y2="67.3"/>
		<line class="st13" x1="33.6" y1="53" x2="37.1" y2="53"/>
	</g>
</g>
<g id="Calque_24" class="st0">
	<g class="st1">
		<g>
			<g>
				<g>
					<path id="SVGID_1_" class="st13" d="M92.8,60.2v-8.3c0-14.2-11.5-25.7-25.7-25.7h-0.5v-10c0-5.5-4.5-10-10-10s-10,4.5-10,10v10
						c-14.4,0-25.9,11.5-25.9,25.7v35.7c0,14.2,11.5,25.7,25.7,25.7h4.1v2.8c0,3.3,2.7,6,6,6s6-2.7,6-6 M56.5,12.2
						c2.2,0,3.9,1.8,3.9,3.9c0,2.2-1.8,3.9-3.9,3.9s-3.9-1.8-3.9-3.9C52.6,13.9,54.3,12.2,56.5,12.2z M84.2,58.3v-6.6h-55v35.8
						c0,9.5,7.7,17.2,17.2,17.2h6.8 M63.7,56.1h-8.4 M59.5,60.8h-4.2 M63.7,65.9h-8.4 M59.5,70.7h-4.2 M57.9,75.8h-2.6"/>
				</g>
			</g>
			<path class="st13" d="M56,108.2H44.7c-10.6,0-19.2-8.6-19.2-19.2V49.8c0-10.6,8.6-19.2,19.2-19.2h23.5c10.6,0,19.2,8.6,19.2,19.2
				v9.5"/>
		</g>
		<circle class="st13" cx="82.5" cy="90.1" r="24.6"/>
		<g>
			<line class="st14" x1="81.4" y1="101.3" x2="81.4" y2="106.6"/>
			<path class="st14" d="M75.3,85.7c0,0-0.5-3.1,0.7-5.5c1.1-2.4,5.2-5,9.8-3.2c4.6,1.8,5.1,7,2.7,9.8s-5,3.9-6,6.6
				c-1.1,2.8-0.9,5.6-0.9,5.6"/>
		</g>
	</g>
</g>
<g id="Calque_25" class="st0">
	<g class="st1">
		<g>
			<g>
				<path class="st13" d="M64.5,68h13.8v1.4c0,8.2-6.8,14.9-15.2,14.9s-15.2-6.7-15.2-15s6.8-14.9,15.2-14.9h1.4V68z"/>
				<path class="st13" d="M79.2,56.6l3.8-3.8l-2-1.9l1.8-1.8l-2-1.9L79.1,49l-2-1.9l-4.4,4.3c-1.7-0.9-3.6-1.6-5.6-2v-3.2H70v-2.7
					H56.1v2.7h2.8v3.2c-1.9,0.4-3.8,1-5.6,2L49,47.1L47,49l-1.8-1.8l-2,1.9l1.8,1.8l-2,1.9l3.8,3.8c-3,3.6-4.6,8.1-4.6,12.8
					c0,11.3,9.3,20.5,20.8,20.5s20.8-9.2,20.8-20.5C83.8,64.7,82.2,60.2,79.2,56.6z M60.8,50.2v-4.1h4.5v4.1"/>
			</g>
		</g>
		<g>
			<g>
				<path class="st13" d="M30.1,26.4c2.4-3.7,6.5-6.1,11.2-6.1h1.9c7.4,0,13.4,6,13.4,13.4v9.4"/>
			</g>
			<g>
				<line class="st13" x1="34.4" y1="4.1" x2="34.4" y2="34.7"/>
				<g>
					<g>
						<path class="st13" d="M38.3,39.9c-0.4-2.7-2.7-4.8-5.6-4.8h-3.4c-4.5,0-7.6,2.3-8.8,6.5c-0.2,0.3-0.4,2.6-0.4,2.6v7.7
							c0,0.8,0.1,3.2,1.7,3.2s2.1-1.6,2.1-2.5v-2.2l0,0v11.9c0,1,0.8,1.8,1.8,1.8s1.8-0.8,1.8-1.8V50.4l0,0v14c0,1,0.8,1.8,1.8,1.8
							l0,0c1,0,1.8-0.8,1.8-1.8v-2.6c0.1,0.9,0.9,1.7,1.8,1.7c1,0,1.8-0.8,1.8-1.8V50.4l0,0v6.7c0,0.9,0.7,1.6,1.6,1.6
							c0.9,0,1.6-0.7,1.6-1.6V40.3C38.4,40.2,38.3,40.1,38.3,39.9z"/>
					</g>
				</g>
				<line class="st13" x1="24.1" y1="12.4" x2="24.1" y2="36.6"/>
				<rect x="26.5" y="26.2" class="st15" width="5.5" height="4.1"/>
				<line class="st13" x1="31.5" y1="61.8" x2="31.5" y2="50.4"/>
			</g>
		</g>
		<g>
			<g>
				<path class="st13" d="M97.5,101.8c-2.4,3.7-6.5,6.1-11.2,6.1h-1.9c-7.4,0-13.4-6-13.4-13.4v-6"/>
			</g>
			<g>
				<line class="st13" x1="93.2" y1="124" x2="93.2" y2="93.4"/>
				<g>
					<g>
						<path class="st13" d="M105.7,73.1c-1.6,0-2.1,1.6-2.1,2.5v2.2l0,0v-12c0-1-0.8-1.8-1.8-1.8s-1.8,0.8-1.8,1.8v11.9l0,0v-14
							c0-1-0.8-1.8-1.8-1.8l0,0c-1,0-1.8,0.8-1.8,1.8v2.6c-0.1-0.9-0.9-1.7-1.8-1.7l0,0c-1,0-1.8,0.8-1.8,1.8v11.2l0,0v-6.7
							c0-0.9-0.7-1.6-1.6-1.6s-1.6,0.7-1.6,1.6v16.8c0,0.1,0,0.3,0.1,0.4c0.4,2.7,2.7,4.8,5.6,4.8h3.4c4.5,0,7.6-2.3,8.8-6.5
							c0.2-0.3,0.4-2.6,0.4-2.6v-7.7C107.5,75.5,107.4,73.1,105.7,73.1z"/>
					</g>
				</g>
				<line class="st13" x1="103.6" y1="115.8" x2="103.6" y2="91.6"/>
				<rect x="95.6" y="97.8" class="st16" width="5.5" height="4.1"/>
				<line class="st13" x1="96.2" y1="66.4" x2="96.2" y2="77.7"/>
			</g>
		</g>
	</g>
</g>
<g id="Calque_26" class="st0">
	<g class="st1">
		<g>
			<path class="st13" d="M79.8,52.6c0-4.7-3.8-8.5-8.5-8.5c-2.6,0-5,1.2-6.5,3.1c-1.6-1.9-3.9-3.1-6.5-3.1c-4.7,0-8.5,3.8-8.5,8.5
				c0,2.8,2,5.6,3.3,6.9c1.3,1.3,11.7,11.8,11.7,11.8S75,61.2,76.6,59.6C78.2,57.9,79.8,55.4,79.8,52.6z"/>
		</g>
		<g>
			<path class="st13" d="M110.1,49.2c1.7-4.4-0.5-9.3-4.8-11c-2.5-1-5.1-0.7-7.2,0.5c-0.8-2.3-2.5-4.3-5-5.2
				c-4.4-1.7-9.3,0.5-11,4.8c-1,2.6-0.1,6,0.6,7.7s6.7,15.3,6.7,15.3s13.2-5.8,15.2-6.8S109.1,51.8,110.1,49.2z"/>
		</g>
		<g>
			<path class="st13" d="M22.4,43.8c-1.7-4.4,0.5-9.3,4.8-11c2.5-1,5.1-0.7,7.2,0.5c0.8-2.3,2.5-4.3,5-5.2c4.4-1.7,9.3,0.5,11,4.8
				c1,2.6,0.1,6-0.6,7.7s-6.7,15.3-6.7,15.3S30,50.1,27.9,49.1S23.4,46.4,22.4,43.8z"/>
		</g>
		<g>
			<polygon class="st13" points="28.5,95.5 17,95.5 17,64.2 28.5,64.2 28.5,67.6 			"/>
			<path class="st13" d="M28.5,67.6c0,0,15-1.4,17.3,7.4c6.5,0,8.8,0,11.3,0s11.1,1.6,11.1,10.6c-11.1,0-26.6,0-26.6,0"/>
			<path class="st13" d="M64.8,77.7h15.9c0,0,13.4,0,12,7.9c-11.3,4.4-35.6,12.5-37,13.6s-6.9,2.5-11.6,0s-15.7-8-15.7-8"/>
		</g>
	</g>
</g>
<g id="Calque_27" class="st0">
	<g class="st1">
		<g>
			<g>
				<g>
					<path id="SVGID_3_" class="st13" d="M97.7,64.4V52.6c0-13.3-10.8-24.1-24.1-24.1h-0.5v-9.3c0-5.2-4.2-9.3-9.3-9.3
						s-9.3,4.2-9.3,9.3v9.3c-13.5,0-24.2,10.8-24.2,24.1V64 M30.9,91.7c2.6,10.5,12.1,18.4,23.4,18.4h3.8v2.6c0,3.1,2.5,5.6,5.6,5.6
						s5.6-2.5,5.6-5.6V110h4.4c11.4,0,20.9-7.9,23.4-18.4 M63.8,15.6c2,0,3.7,1.6,3.7,3.7c0,2-1.6,3.7-3.7,3.7c-2,0-3.7-1.6-3.7-3.7
						S61.7,15.6,63.8,15.6z M89.6,64V52.5H38.2v11.7 M39.3,91.7c2.3,6,8.2,10.3,15,10.3h19.4c6.9,0,12.7-4.3,15-10.4 M70.5,56.6
						h-7.8 M66.6,61h-3.9 M70.5,65.8h-7.8 M70.5,93.5h-7.8"/>
				</g>
			</g>
			<path class="st13" d="M92.1,91.6c-1.9,7.8-9,13.6-17.4,13.6h-22c-8.4,0-15.4-5.7-17.4-13.4"/>
			<path class="st13" d="M34.8,64V50.7c0-9.9,8-18,18-18h21.9c9.9,0,18,8,18,18V64"/>
		</g>
		<path class="st17" d="M35.5,71.9h-6.6L28,77.1c0,0,0,0.4,0.2,0.3c0.6-0.4,1.9-1.5,3.9-1.3c2.6,0.3,3.6,2.1,3.2,4.7
			c-0.3,2.3-1.8,3.4-4.2,3.4c-1.9,0.1-2.7-1.2-3.3-2.4"/>
		<path class="st13" d="M42.9,84.2L42.9,84.2c-2,0-3.6-1.6-3.6-3.6v-5.9c0-2,1.6-3.6,3.6-3.6l0,0c2,0,3.6,1.6,3.6,3.6v5.9
			C46.5,82.5,44.9,84.2,42.9,84.2z"/>
		<path class="st13" d="M54.7,84.2L54.7,84.2c-2,0-3.6-1.6-3.6-3.6v-5.9c0-2,1.6-3.6,3.6-3.6l0,0c2,0,3.6,1.6,3.6,3.6v5.9
			C58.3,82.5,56.7,84.2,54.7,84.2z"/>
		<path class="st13" d="M72.2,84.2L72.2,84.2c-2,0-3.6-1.6-3.6-3.6v-5.9c0-2,1.6-3.6,3.6-3.6l0,0c2,0,3.6,1.6,3.6,3.6v5.9
			C75.9,82.5,74.2,84.2,72.2,84.2z"/>
		<path class="st13" d="M84.2,84.2L84.2,84.2c-2,0-3.6-1.6-3.6-3.6v-5.9c0-2,1.6-3.6,3.6-3.6l0,0c2,0,3.6,1.6,3.6,3.6v5.9
			C87.9,82.5,86.3,84.2,84.2,84.2z"/>
		<path class="st13" d="M96.3,84.2L96.3,84.2c-2,0-3.6-1.6-3.6-3.6v-5.9c0-2,1.6-3.6,3.6-3.6l0,0c2,0,3.6,1.6,3.6,3.6v5.9
			C99.9,82.5,98.3,84.2,96.3,84.2z"/>
		<rect x="62.5" y="82.7" class="st18" width="1" height="1"/>
	</g>
</g>
<g id="Calque_28" class="st0">
	<g class="st1">
		<g>
			<g>
				<g>
					<g>
						<path class="st13" d="M24.9,38.8c-0.3,0.9-0.7,1.4-1.1,1.3c-0.7,2.1-2,3.4-3.9,3.4s-3.2-1.3-3.9-3.4c-0.3,0.1-0.8-0.4-1.1-1.3
							c-0.3-0.9-0.4-1.9,0-2l0,0c-0.4-3.5,0.7-6.3,4.1-6.3c0.9,0,2.7,0.3,3.2,1c0.8-0.2,2.7,0.9,2.8,2.1c0.2,1.5,0,2.4-0.1,3.3l0,0
							C25.3,36.9,25.2,37.9,24.9,38.8z"/>
						<path class="st13" d="M33.1,62.4l0.9-0.1l-1.7-12.9c0-2.2-1.9-3.2-2.6-3.5c-0.1-0.1-0.2-0.1-0.3-0.1c-1.3-0.4-3.9-1.7-5.3-2.4
							c0,0-1.6,2.6-4.2,2.6l0,0l0,0l0,0c-2.5,0-4.1-2.6-4.1-2.6c-1.4,0.7-4,2-5.3,2.4c-0.1,0-0.2,0.1-0.3,0.1
							c-0.7,0.3-2.6,1.3-2.6,3.5L4.8,62.3l0.9,0.1"/>
					</g>
				</g>
			</g>
			<g>
				<g>
					<g>
						<path class="st13" d="M54.8,38.8c-0.3,0.9-0.7,1.4-1.1,1.3c-0.7,2.1-2,3.4-3.9,3.4s-3.2-1.3-3.9-3.4c-0.3,0.1-0.8-0.4-1.1-1.3
							c-0.3-0.9-0.4-1.9,0-2l0,0c-0.4-3.5,0.7-6.3,4.1-6.3c0.9,0,2.7,0.3,3.2,1c0.8-0.2,2.7,0.9,2.8,2.1c0.2,1.5,0,2.4-0.1,3.3l0,0
							C55.2,36.9,55.1,37.9,54.8,38.8z"/>
						<path class="st13" d="M63,62.4l0.9-0.1l-1.7-12.9c0-2.2-1.9-3.2-2.6-3.5c-0.1-0.1-0.2-0.1-0.3-0.1c-1.3-0.4-3.9-1.7-5.3-2.4
							c0,0-1.6,2.6-4.2,2.6l0,0l0,0l0,0c-2.5,0-4.1-2.6-4.1-2.6c-1.4,0.7-4,2-5.3,2.4c-0.1,0-0.2,0.1-0.3,0.1
							c-0.7,0.3-2.6,1.3-2.6,3.5l-2.8,12.9l0.9,0.1"/>
					</g>
				</g>
			</g>
			<g>
				<g>
					<g>
						<path class="st13" d="M84.7,38.8c-0.3,0.9-0.7,1.4-1.1,1.3c-0.7,2.1-2,3.4-3.9,3.4s-3.2-1.3-3.9-3.4c-0.3,0.1-0.8-0.4-1.1-1.3
							c-0.3-0.9-0.4-1.9,0-2l0,0c-0.4-3.5,0.7-6.3,4.1-6.3c0.9,0,2.7,0.3,3.2,1c0.8-0.2,2.7,0.9,2.8,2.1c0.2,1.5,0,2.4-0.1,3.3l0,0
							C85.1,36.9,85,37.9,84.7,38.8z"/>
						<path class="st13" d="M92.9,62.4l0.9-0.1L92,49.4c0-2.2-1.9-3.2-2.6-3.5c-0.1-0.1-0.2-0.1-0.3-0.1c-1.3-0.4-3.9-1.7-5.3-2.4
							c0,0-1.6,2.6-4.2,2.6l0,0l0,0l0,0c-2.5,0-4.1-2.6-4.1-2.6c-1.4,0.7-4,2-5.3,2.4c-0.1,0-0.2,0.1-0.3,0.1
							c-0.7,0.3-2.6,1.3-2.6,3.5l-2.8,12.9l0.9,0.1"/>
					</g>
				</g>
			</g>
			<g>
				<g>
					<g>
						<path class="st13" d="M113.8,38.8c-0.3,0.9-0.7,1.4-1.1,1.3c-0.7,2.1-2,3.4-3.9,3.4s-3.2-1.3-3.9-3.4
							c-0.3,0.1-0.8-0.4-1.1-1.3c-0.3-0.9-0.4-1.9,0-2l0,0c-0.4-3.5,0.7-6.3,4.1-6.3c0.9,0,2.7,0.3,3.2,1c0.8-0.2,2.7,0.9,2.8,2.1
							c0.2,1.5,0,2.4-0.1,3.3l0,0C114.2,36.9,114.2,37.9,113.8,38.8z"/>
						<path class="st13" d="M122,62.4l0.9-0.1l-1.7-12.9c0-2.2-1.9-3.2-2.6-3.5c-0.1-0.1-0.2-0.1-0.3-0.1c-1.3-0.4-3.9-1.7-5.3-2.4
							c0,0-1.6,2.6-4.2,2.6l0,0l0,0l0,0c-2.5,0-4.1-2.6-4.1-2.6c-1.4,0.7-4,2-5.3,2.4c-0.1,0-0.2,0.1-0.3,0.1
							c-0.7,0.3-2.6,1.3-2.6,3.5l-2.8,12.9l0.9,0.1"/>
					</g>
				</g>
			</g>
		</g>
		<g>
			<g>
				<g>
					<path class="st13" d="M39.5,74c-0.3,0.9-0.7,1.4-1.1,1.3c-0.7,2.1-2,3.4-3.9,3.4s-3.2-1.3-3.9-3.4c-0.3,0.1-0.8-0.4-1.1-1.3
						c-0.3-0.9-0.4-1.9,0-2l0,0c-0.4-3.5,0.7-6.3,4.1-6.3c0.9,0,2.7,0.3,3.2,1c0.8-0.2,2.7,0.9,2.8,2.1c0.2,1.5,0,2.4-0.1,3.3l0,0
						C39.8,72.1,39.8,73.1,39.5,74z"/>
					<path class="st13" d="M47.7,97.7l0.9-0.1l-1.7-12.9c0-2.2-1.9-3.2-2.6-3.5C44.1,81,44,81,43.9,80.9c-1.3-0.4-3.9-1.7-5.3-2.4
						c0,0-1.6,2.6-4.2,2.6l0,0l0,0l0,0c-2.5,0-4.1-2.6-4.1-2.6c-1.4,0.7-4,2-5.3,2.4c-0.1,0-0.2,0.1-0.3,0.1
						c-0.7,0.3-2.6,1.3-2.6,3.5l-2.8,12.9l0.9,0.1"/>
				</g>
			</g>
		</g>
		<g>
			<g>
				<g>
					<path class="st19" d="M69.4,74c-0.3,0.9-0.7,1.4-1.1,1.3c-0.7,2.1-2,3.4-3.9,3.4s-3.2-1.3-3.9-3.4c-0.3,0.1-0.8-0.4-1.1-1.3
						s-0.4-1.9,0-2l0,0c-0.4-3.5,0.7-6.3,4.1-6.3c0.9,0,2.7,0.3,3.2,1c0.8-0.2,2.7,0.9,2.8,2.1c0.2,1.5,0,2.4-0.1,3.3l0,0
						C69.7,72.1,69.7,73.1,69.4,74z"/>
					<path class="st19" d="M50.1,97.7l-0.9-0.1L52,84.7c0-2.2,1.9-3.2,2.6-3.5c0.1-0.1,0.2-0.1,0.3-0.1c1.3-0.4,3.9-1.7,5.3-2.4
						c0,0,1.6,2.6,4.1,2.6l0,0l0,0l0,0c2.5,0,4.2-2.6,4.2-2.6c1.4,0.7,4,2,5.3,2.4c0.1,0,0.2,0.1,0.3,0.1c0.7,0.3,2.6,1.3,2.6,3.5
						l1.7,12.9l-0.9,0.1H50.1z"/>
				</g>
			</g>
		</g>
		<g>
			<g>
				<g>
					<path class="st13" d="M99.3,74c-0.3,0.9-0.7,1.4-1.1,1.3c-0.7,2.1-2,3.4-3.9,3.4s-3.2-1.3-3.9-3.4c-0.3,0.1-0.8-0.4-1.1-1.3
						c-0.3-0.9-0.4-1.9,0-2l0,0c-0.4-3.5,0.7-6.3,4.1-6.3c0.9,0,2.7,0.3,3.2,1c0.8-0.2,2.7,0.9,2.8,2.1c0.2,1.5,0,2.4-0.1,3.3l0,0
						C99.6,72.1,99.6,73.1,99.3,74z"/>
					<path class="st13" d="M107.5,97.7l0.9-0.1l-1.7-12.9c0-2.2-1.9-3.2-2.6-3.5c-0.1-0.1-0.2-0.1-0.3-0.1c-1.3-0.4-3.9-1.7-5.3-2.4
						c0,0-1.6,2.6-4.2,2.6l0,0l0,0l0,0c-2.5,0-4.1-2.6-4.1-2.6c-1.4,0.7-4,2-5.3,2.4c-0.1,0-0.2,0.1-0.3,0.1
						c-0.7,0.3-2.6,1.3-2.6,3.5l-2.8,12.9l0.9,0.1"/>
				</g>
			</g>
		</g>
	</g>
</g>
<g id="Calque_29">
	<g>
		<g>
			<g>
				<line class="st20" x1="86.5" y1="84.2" x2="92.8" y2="84.2"/>
				<line class="st20" x1="94.2" y1="84.2" x2="107.9" y2="84.2"/>
			</g>
			<g>
				<line class="st20" x1="92.8" y1="71.9" x2="97.8" y2="69.9"/>
				<line class="st20" x1="99.2" y1="69.3" x2="108.9" y2="65.3"/>
			</g>
			<g>
				<line class="st20" x1="109.6" y1="65.1" x2="119.8" y2="61"/>
			</g>
			<g>
				<line class="st20" x1="79.1" y1="67.8" x2="84.1" y2="63"/>
				<line class="st20" x1="85" y1="62.2" x2="94.5" y2="53"/>
			</g>
			<g>
				<line class="st20" x1="87.1" y1="27.9" x2="83.5" y2="35.7"/>
				<line class="st20" x1="82.8" y1="37.4" x2="75.1" y2="54.4"/>
			</g>
			<g>
				<line class="st20" x1="63.1" y1="40.2" x2="62.8" y2="46.5"/>
				<line class="st20" x1="62.8" y1="49.4" x2="62.1" y2="61.6"/>
			</g>
			<g>
				<line class="st20" x1="50.1" y1="54.6" x2="45.4" y2="41"/>
				<line class="st20" x1="45" y1="39.7" x2="40.5" y2="26.7"/>
			</g>
			<g>
				<line class="st20" x1="30.9" y1="51.6" x2="35" y2="56.4"/>
				<line class="st20" x1="35.9" y1="57.4" x2="44.9" y2="67.9"/>
			</g>
			<g>
				<line class="st20" x1="7.9" y1="63.4" x2="13.8" y2="65.6"/>
				<line class="st20" x1="15.1" y1="66.1" x2="34.9" y2="73.6"/>
			</g>
			<g>
				<line class="st20" x1="18.4" y1="83.9" x2="24.7" y2="84"/>
				<line class="st20" x1="26.1" y1="84.1" x2="39.8" y2="84.3"/>
			</g>
		</g>
		<g>
			<g>
				<path class="st20" d="M80.7,78.9c0-5.6-4.6-10.2-10.2-10.2c-3.2,0-6,1.4-7.8,3.7c-1.9-2.3-4.7-3.7-7.8-3.7
					c-5.6,0-10.2,4.6-10.2,10.2c0,3.4,2.4,6.7,4,8.3c1.6,1.6,14.1,14.2,14.1,14.2S75,89.3,76.9,87.3S80.7,82.3,80.7,78.9z"/>
			</g>
		</g>
	</g>
</g>
<g id="Calque_30" class="st0">
	<g class="st1">
		<g>
			<path class="st13" d="M66.6,66.8h28.1v2.8c0,16.7-13.9,30.3-30.9,30.3S32.9,86.3,32.9,69.6s13.9-30.3,30.9-30.3h2.8
				C66.6,39.3,66.6,66.8,66.6,66.8z"/>
			<path class="st13" d="M96.6,43.6l7.8-7.6l-4-3.9l3.6-3.6l-4-3.9l-3.6,3.6l-4-3.9L83.6,33c-3.5-1.8-7.3-3.2-11.3-4v-6.5h5.6V17
				H49.8v5.5h5.6V29c-4,0.8-7.8,2.1-11.3,4l-8.9-8.7l-4,3.9l-3.6-3.6l-4,3.9l3.6,3.6l-4,3.9l7.8,7.6c-6.1,7.3-9.4,16.4-9.4,26
				c0,22.9,18.9,41.6,42.1,41.6s42.1-18.6,42.1-41.6C106,60,102.7,50.9,96.6,43.6z M59.3,32.8V22.5h9.1v10.3"/>
		</g>
		<circle class="st13" cx="63.8" cy="69.9" r="37.3"/>
	</g>
</g>
<g id="Calque_31" class="st0">
	<g class="st1">
		<path class="st13" d="M97.5,107.8H30.1c-4.6,0-8.3-3.7-8.3-8.3V42c0-4.6,3.7-8.3,8.3-8.3h67.4c4.6,0,8.3,3.7,8.3,8.3v57.5
			C105.9,104.1,102.1,107.8,97.5,107.8z"/>
		<line class="st13" x1="22.5" y1="57.6" x2="104.7" y2="57.6"/>
		<g>
			<rect x="30.9" y="66" class="st13" width="65.1" height="33.5"/>
			<line class="st13" x1="47.7" y1="66" x2="47.7" y2="99.5"/>
			<line class="st13" x1="63.6" y1="66" x2="63.6" y2="99.5"/>
			<line class="st13" x1="79.6" y1="66" x2="79.6" y2="99.5"/>
			<line class="st13" x1="31.3" y1="82.7" x2="96" y2="82.7"/>
		</g>
		<g>
			<path class="st13" d="M37.5,33.3c0-7.1,3.1-12.9,6.9-12.9s6.9,5.8,6.9,12.9s-3.1,12.9-6.9,12.9"/>
			<path class="st13" d="M56.9,33.3c0-7.1,3.1-12.9,6.9-12.9s6.9,5.8,6.9,12.9s-3.1,12.9-6.9,12.9"/>
			<path class="st13" d="M76.3,33.3c0-7.1,3.1-12.9,6.9-12.9s6.9,5.8,6.9,12.9S87,46.2,83.2,46.2"/>
		</g>
	</g>
</g>
<g id="Calque_32" class="st0">
	<g class="st1">
		<g>
			<g>
				<g>
					<path class="st13" d="M72.2,56.5c-0.5,1.5-1.2,2.3-1.8,2.2c-1.2,3.5-3.4,5.6-6.5,5.6s-5.3-2.2-6.5-5.6
						c-0.6,0.2-1.3-0.7-1.8-2.2s-0.6-3.1,0-3.3c0,0,0,0,0.1,0c-0.7-5.8,1.1-10.4,6.9-10.4c1.5,0,4.4,0.4,5.2,1.6
						c1.4-0.3,4.4,1.4,4.7,3.4c0.3,2.5,0,3.9-0.2,5.4l0,0C72.9,53.3,72.8,54.9,72.2,56.5z"/>
					<path class="st13" d="M81.8,69.6c-0.2-0.1-2-1.7-2.1-1.7c-2.1-0.6-6.4-2.8-8.7-4c0,0-2.7,4.3-6.9,4.4l0,0l0,0l0,0
						c-4.2-0.1-6.9-4.4-6.9-4.4c-2.3,1.2-6.6,3.4-8.7,4c-0.1,0-2.3,1.9-2.5,2"/>
				</g>
			</g>
		</g>
		<path class="st21" d="M88.8,118H38.6c-4.2,0-7.5-3.4-7.5-7.5V17.7c0-4.2,3.4-7.5,7.5-7.5h50.2c4.2,0,7.5,3.4,7.5,7.5v92.7
			C96.4,114.6,93,118,88.8,118z"/>
		<line class="st21" x1="31.8" y1="21.5" x2="96.6" y2="21.5"/>
		<line class="st21" x1="31.8" y1="108.2" x2="96.6" y2="108.2"/>
		<g>
			<circle class="st21" cx="53.4" cy="101.4" r="2.6"/>
			<circle class="st21" cx="63.9" cy="101.4" r="2.6"/>
			<circle class="st21" cx="74.3" cy="101.4" r="2.6"/>
		</g>
		<circle class="st21" cx="63.7" cy="57.7" r="21.9"/>
	</g>
</g>
<g id="Calque_33" class="st0">
	<g class="st1">
		<path class="st21" d="M106,103.9H21.7c-1.7,0-3-1.4-3-3V54.6c0-1.7,1.4-3,3-3H106c1.7,0,3,1.4,3,3v46.3
			C109,102.6,107.6,103.9,106,103.9z"/>
		<path class="st21" d="M109.3,46.9h-91v-3.7c0-1.8,1.5-3.3,3.3-3.3h84.5c1.8,0,3.3,1.5,3.3,3.3v3.7H109.3z"/>
		<path class="st21" d="M80.2,39.9V24.2H47.5v15.7 M52.6,39.1V28.4H75v10.8"/>
		<g>
			<path class="st21" d="M82,72.8c0-5.7-4.6-10.3-10.3-10.3c-3.2,0-6,1.5-7.9,3.7c-1.9-2.3-4.7-3.7-7.9-3.7
				c-5.7,0-10.3,4.6-10.3,10.3c0,3.4,2.5,6.8,4,8.4s14.2,14.3,14.2,14.3S76.1,83.2,78,81.2S82,76.2,82,72.8z"/>
		</g>
		<g>
			<line class="st21" x1="63.8" y1="70.8" x2="63.8" y2="87.3"/>
			<line class="st21" x1="55.6" y1="79.1" x2="72.1" y2="79.1"/>
		</g>
	</g>
</g>
<g id="Calque_34" class="st0">
	<g class="st1">
		<g>
			<g>
				<g>
					<path class="st13" d="M61.7,25c-0.5,1.6-1.3,2.4-1.9,2.3c-1.3,3.7-3.5,5.9-6.8,5.9s-5.5-2.3-6.8-5.9c-0.6,0.2-1.4-0.7-1.9-2.3
						c-0.5-1.6-0.6-3.3,0-3.5c0,0,0,0,0.1,0c-0.7-6.1,1.2-11,7.2-11c1.6,0,4.6,0.5,5.5,1.7c1.5-0.4,4.7,1.5,4.9,3.6
						c0.3,2.7,0,4.1-0.2,5.7l0,0C62.4,21.7,62.3,23.4,61.7,25z"/>
					<path class="st13" d="M70,37.3c-0.2-0.1-0.4-0.2-0.6-0.2c-2.2-0.6-6.7-2.9-9.2-4.2c0,0-2.9,4.5-7.3,4.6l0,0l0,0l0,0
						c-4.4-0.1-7.2-4.6-7.2-4.6c-2.4,1.3-7,3.6-9.2,4.2c-0.1,0-0.3,0.1-0.6,0.2c-1.2,0.5-4.5,2.3-4.5,6.1L26.6,66l1.5,0.2"/>
				</g>
			</g>
		</g>
		<polyline class="st21" points="61.9,74.7 39.7,105.1 48.2,117 70.2,86.6 		"/>
		<path class="st21" d="M59.6,42.9c0,0,4.3,11.6,8.9,18.2s32.6,44.1,32.6,44.1l-8.5,12.4c0,0-35.5-49.9-37.1-52.5s-3.1-6.9-0.5-13.5
			s5.5-12.9,15.3-12.9S82.5,43.1,84.7,49c2.3,5.9,4.2,11-0.5,17.9c-1.5,2.2-5.5,7.5-5.5,7.5"/>
		<path class="st21" d="M81.5,43.1c0,0-2.7,7.7-4.8,11.2c-2.2,3.5-5.8,9.8-5.8,9.8"/>
		<path class="st21" d="M62.1,48.7c0,0,7-1.1,16.8,0.1"/>
	</g>
</g>
<g id="Calque_35" class="st0">
	<g class="st1">
		<path class="st21" d="M97.5,29.2L72,47.3c-1.9,1.3-6.5,8.5-6.5,8.5l-9.4,6.8l-0.3,7.7L69,60.8c0,0,8.4-2.2,10.2-3.5l25.4-18.1
			c2.8-2,3.4-5.8,1.4-8.6C104,27.9,100.2,27.2,97.5,29.2z M93.2,42.9L80,52.4l-2.8-4l13.2-9.5L93.2,42.9z M101.3,35.3
			c0,1-0.8,1.7-1.7,1.7c-1,0-1.7-0.8-1.7-1.7c0-1,0.8-1.7,1.7-1.7C100.5,33.5,101.3,34.3,101.3,35.3z"/>
		<path class="st21" d="M64.5,64.9c2.9,6.9,4.4,11.7,4.4,15.4c0,12.3-10.8,22.3-24.2,22.3s-24.2-10-24.2-22.3s24.2-54.7,24.2-54.7
			s8.6,15.1,15.6,29.8c0.5,1,0.9,2,1.4,3"/>
		<path class="st21" d="M46,98.6c-11.7,0-21.3-8.8-21.3-19.6"/>
	</g>
</g>
<g id="Calque_36" class="st0">
	<g class="st1">
		<g>
			<path class="st21" d="M63.6,66.7c0,4.7,3.8,8.4,8.5,8.4s8.4-3.8,8.4-8.4c0-7.4-7.6-12.5-8.4-20.2C70.9,54.3,63.6,59.9,63.6,66.7"
				/>
			<path class="st21" d="M84.9,30.6h-5.5c-0.2-3.7-3.4-6.7-7.2-6.7c-3.8,0-7,3-7.2,6.7h-4.8c-4.4,0-7.9,3.5-7.9,7.8v40.5
				c0,4.3,3.5,7.8,7.9,7.8h24.7c4.4,0,7.9-3.5,7.9-7.8V38.4C92.8,34.1,89.2,30.6,84.9,30.6z"/>
			<path class="st21" d="M72.1,33.3c1.7,0,3.1-1.4,3.1-3.1s-1.4-3.1-3.1-3.1S69,28.5,69,30.2C69,31.9,70.4,33.3,72.1,33.3"/>
		</g>
		<g>
			<polyline class="st21" points="68.2,86.9 68.2,91 76.8,91 76.8,86.9 			"/>
		</g>
		<polyline class="st21" points="112.6,97.2 121.1,97.2 121.1,76.6 114.1,76.6 109,65 93.2,65 		"/>
		<line class="st21" x1="48.8" y1="64.7" x2="28.5" y2="64.7"/>
		<line class="st21" x1="39.7" y1="49.5" x2="19.3" y2="49.5"/>
		<line class="st21" x1="26.9" y1="74.1" x2="6.5" y2="74.1"/>
		<line class="st21" x1="37.8" y1="85.4" x2="17.5" y2="85.4"/>
		<circle class="st21" cx="46.2" cy="97.1" r="7.1"/>
		<circle class="st21" cx="105.5" cy="97.1" r="7.1"/>
		<polygon class="st21" points="105,70.2 109.3,78.7 99.5,78.7 99.5,69.5 105,69.5 		"/>
		<line class="st21" x1="98.3" y1="97.1" x2="53.3" y2="97.1"/>
		<line class="st21" x1="39.1" y1="97.1" x2="31.3" y2="97.1"/>
	</g>
</g>
<g id="Calque_37" class="st0">
	<g class="st1">
		<g>
			<g>
				<g>
					<path id="SVGID_5_" class="st13" d="M90.9,60.4v-7.8c0-13.3-10.8-24.1-24.1-24.1h-0.5v-9.3c0-5.2-4.2-9.3-9.3-9.3
						s-9.3,4.2-9.3,9.3v9.3c-13.5,0-24.2,10.8-24.2,24.1V86c0,13.3,10.8,24.1,24.1,24.1h3.8v2.6c0,3.1,2.5,5.6,5.6,5.6
						s5.6-2.5,5.6-5.6 M57,15.6c2,0,3.7,1.6,3.7,3.7c0,2-1.6,3.7-3.7,3.7s-3.7-1.6-3.7-3.7S54.9,15.6,57,15.6z M82.9,58.7v-6.2H31.4
						V86c0,8.8,7.2,16,16,16h6.4 M63.7,56.6h-7.8 M59.8,61h-3.9 M63.7,65.8h-7.8 M59.8,70.2h-3.9 M58.3,75h-2.4"/>
				</g>
			</g>
			<path class="st13" d="M56.5,105.3H45.9c-9.9,0-18-8-18-18V50.7c0-9.9,8-18,18-18h21.9c9.9,0,18,8,18,18v8.9"/>
		</g>
		<circle class="st13" cx="81.3" cy="88.4" r="23"/>
		<polyline class="st13" points="70.9,88.5 79.8,101.2 97.1,78.2 		"/>
	</g>
</g>
<g id="Calque_38" class="st0">
	<g class="st1">
		<g>
			<g>
				<g>
					<path class="st13" d="M56.7,33.9c-0.5,1.4-1.2,2.2-1.7,2.1c-1.2,3.3-3.2,5.4-6.2,5.4s-5-2.1-6.2-5.4c-0.5,0.2-1.2-0.6-1.7-2.1
						s-0.6-3,0-3.2c0,0,0,0,0.1,0c-0.7-5.6,1.1-10,6.6-10c1.4,0,4.2,0.4,5,1.5c1.3-0.3,4.3,1.4,4.5,3.3c0.3,2.4,0,3.8-0.2,5.2l0,0
						C57.3,30.9,57.2,32.4,56.7,33.9z"/>
					<path class="st13" d="M26.1,65.1l3.1-14.4c0-3.5,3-5.2,4.1-5.6c0.2-0.1,0.4-0.2,0.5-0.2c2-0.6,6.2-2.7,8.4-3.8
						c0,0,2.6,4.1,6.6,4.2l0,0l0,0l0,0c4,0,6.6-4.2,6.6-4.2c2.2,1.2,6.4,3.2,8.4,3.8c0.1,0,0.3,0.1,0.5,0.2c0,0,2.1,3.8,2.3,4.8
						c0.2,1,3.4,15.7,3.4,15.7"/>
				</g>
			</g>
		</g>
		<line class="st13" x1="76" y1="72" x2="23.4" y2="72"/>
		<path class="st2" d="M23.4,107.4"/>
		<path class="st2" d="M104.2,107.4"/>
		<g>
			<path class="st13" d="M94,54.4h4.1c0,0,1.8-18.7,0-24.5c-1.8-5.9-10-9.1-12.7-5.7c-2.2-0.9-5.9-1.8-6.6,8.9
				C78,43.7,78,54.9,78,54.9"/>
			<path class="st13" d="M92.9,35.1c0,0,0.7-1.2-1.6-2.5c-2.3-1.2-7.6-2.1-7.6-4.3c-2.5,1.2-5.7,3.6-4.8,7.8s3,9.4,5.9,9.1
				s7.3-5.2,7.3-5.2S97,37.6,92.9,35.1z"/>
			<path class="st13" d="M83.9,45.3c0,0,2,4.4-1.1,6.2"/>
			<path class="st13" d="M90.6,77.6c2.3,6.6,3.2,7,2.8,11.8l-2.3,17.7"/>
			<path class="st13" d="M89,42.9c0,0,1.7,5.4,3.3,7.9"/>
			<path class="st13" d="M93.2,52.4c0,0-1.1-3.6-4.2-2.9c-3,0.7-1.6,5.3-0.9,9.4S89,69.2,89,69.2S80.1,79.7,76.5,80
				c-3.6,0.4-7.5-5.7-7.5,0s1.5,5.5,9.6,3S95.1,74.1,96,71.4S96.2,58.2,93.2,52.4z"/>
		</g>
		<path class="st13" d="M77.3,83.9C77.2,84.3,80,107,80,107"/>
		<path class="st13" d="M83.9,50.6c0,0-7.7,6.3-10.2,8.3c-2.8,2.3-0.1,6.2,2.1,7.2c0.4,2.7,0.1,8.1,1,13.4"/>
		<line class="st13" x1="104.2" y1="72" x2="96.3" y2="72"/>
		<polyline class="st13" points="23.4,107.5 23.4,65.6 75.7,65.6 		"/>
		<polyline class="st13" points="96.6,65.6 104.2,65.6 104.2,107.5 		"/>
		<polygon class="st22" points="62.9,54.3 60.4,54.3 60.4,51.8 58,51.8 58,54.3 55.5,54.3 55.5,56.7 58,56.7 58,59.2 60.4,59.2 
			60.4,56.7 62.9,56.7 		"/>
	</g>
</g>
<g id="Calque_39" class="st0">
	<g class="st1">
		<g>
			<g>
				<path class="st13" d="M43,77.5"/>
				<path class="st13" d="M87.3,77.1c0.6-0.1,1.1,0.3,1.2,0.9s-0.3,1.1-0.9,1.2s-1.2,0.2-1.7,0.2L85,79.5c-7,0.9-14,1.3-21,1.3
					c-7.1,0-14.1-0.4-21.1-1.3l-1.3-0.2c-0.5-0.1-0.9-0.1-1.4-0.2c-0.6-0.1-1-0.6-0.9-1.2s0.6-1,1.2-0.9"/>
			</g>
			<g>
				<path class="st13" d="M40.7,91.4c-0.6,0-2.7,0.2-2.7,2.3c0,2,1.7,3,3.3,3.2c1.4,0.1,2.8,0.2,4.2,0.2c2,0,3.7-0.2,4.7-0.5
					c0.2-0.1,0.4-0.1,0.4-0.2s-0.1-0.2-0.3-0.5c-1.6-1.9-5.9-4.3-9.2-4.5C41,91.5,40.8,91.4,40.7,91.4z"/>
			</g>
			<g>
				<path class="st13" d="M77,96.5c0.1,0,0.2,0.1,0.4,0.2c1,0.3,2.7,0.5,4.7,0.5c1.3,0,2.7-0.1,4.2-0.2c1.6-0.2,3.3-1.2,3.3-3.2
					c0-2.1-2.1-2.3-2.7-2.3c-0.1,0-0.3,0-0.4,0c-3.3,0.3-7.6,2.6-9.2,4.5C77.1,96.2,77.1,96.4,77,96.5z"/>
			</g>
			<g>
				<path class="st13" d="M79.3,106.8h2.2v1.7c0,2.4,2,4.3,4.4,4.3h3c2.4,0,4.4-1.9,4.4-4.3v-6c0-0.7,0.2-1.4,0.6-1.9
					c1-1.5,1.6-3.3,1.6-5.1v-7.8c0-0.1,0-0.2,0-0.2v-0.9c0-1.2,0.7-2.2,1.9-2.6c1-0.3,1.6-1.2,1.6-2.2v-2.1c0-0.5-0.2-1-0.6-1.3
					s-0.8-0.5-1.3-0.5h-2.2l0,0c-1.4,0-2.7-0.7-3.5-1.9c-1.2-1.9-3.5-5.2-7.3-10.4C82,62.7,78.6,61,75,61H52.9c-3.6,0-7,1.7-9.1,4.6
					c-1,1.3-3.5,5-5.5,7.9L36.6,76c-0.8,1.1-2.1,1.8-3.4,1.8l0,0h-2.3c-0.6,0-1,0.1-1.4,0.5c-0.4,0.3-0.6,0.8-0.6,1.3v2.1
					c0,1,0.6,1.9,1.6,2.2c1.1,0.4,1.9,1.4,1.9,2.6v9c0,1.8,0.5,3.4,1.5,4.9c0.4,0.5,0.6,1.2,0.6,1.9v6.2c0,2.4,1.9,4.3,4.3,4.3h3.1
					c2.4,0,4.3-1.9,4.3-4.3v-1.7h2.2"/>
				<path class="st13" d="M42,64.5"/>
				<path class="st13" d="M33.1,75.8"/>
			</g>
			<g>
				<path class="st13" d="M85.6,105.5c0,0.6-0.5,1.1-1.1,1.1H43.1c-0.6,0-1.1-0.5-1.1-1.1"/>
			</g>
			<g>
				<path class="st13" d="M48.7,39.7c1,2,2.4,3.8,4,5.2l0.2,0.2c1.6,1.3,3.4,2.3,5.3,3c0.2,0.1,0.3,0.2,0.4,0.3l5.1,5.6l5.1-5.6
					c0.1-0.1,0.3-0.2,0.4-0.3c2.8-1,5.3-2.7,7.3-4.9c6-7,5.3-17.6-1.7-23.7l-0.2-0.2c-1.7-1.4-3.6-2.5-5.8-3.2l0,0
					c-1.7-0.5-3.4-0.8-5.1-0.8c-4.9,0-9.6,2.1-12.8,5.9C46.6,26.3,45.7,33.6,48.7,39.7L48.7,39.7z"/>
			</g>
			<g>
				<g>
					<g>
						<g>
							<g>
								<path class="st13" d="M56,34.8c1.4,0,2.5-1.1,2.5-2.5c0-1.4-1.1-2.5-2.5-2.5s-2.5,1.1-2.5,2.5C53.5,33.7,54.7,34.8,56,34.8"
									/>
							</g>
						</g>
						<g>
							<g>
								<path class="st13" d="M67.9,26.9c1.4,0,2.5-1.1,2.5-2.5s-1.1-2.5-2.5-2.5s-2.5,1.1-2.5,2.5S66.5,26.9,67.9,26.9"/>
							</g>
						</g>
						<g>
							<g>
								<path class="st13" d="M67.9,42.7c1.4,0,2.5-1.1,2.5-2.5s-1.1-2.5-2.5-2.5c-0.7,0-1.3,0.3-1.8,0.7c-0.5,0.5-0.7,1.1-0.7,1.8
									C65.4,41.6,66.5,42.7,67.9,42.7"/>
							</g>
						</g>
					</g>
				</g>
			</g>
		</g>
		<line class="st13" x1="57.9" y1="34.2" x2="65.9" y2="39.3"/>
		<line class="st13" x1="58.2" y1="31" x2="65.8" y2="25.7"/>
	</g>
</g>
<g id="Calque_40" class="st0">
	<g class="st1">
		<g>
			<line class="st13" x1="96.3" y1="78.8" x2="41.3" y2="78.8"/>
			<path class="st13" d="M17.7,78.8h-8V52.5c0-5.7,4.6-10.2,10.2-10.2h87.9c5.7,0,10.2,4.6,10.2,10.2v26.3h-9.2"/>
			<line class="st13" x1="10" y1="56.4" x2="55.6" y2="56.4"/>
			<line class="st13" x1="32.6" y1="42.5" x2="32.6" y2="56.3"/>
			<polyline class="st13" points="98.1,43 98.2,57.6 73.8,57.6 			"/>
			<path class="st13" d="M118,70.6c0,0-20-1.8-20-15.9"/>
			<circle class="st13" cx="24.1" cy="80.3" r="5.6"/>
			<circle class="st13" cx="34.9" cy="80.3" r="5.6"/>
			<circle class="st13" cx="102.5" cy="80.3" r="5.6"/>
		</g>
		<line class="st13" x1="55.7" y1="42.5" x2="55.7" y2="79"/>
		<line class="st13" x1="73.2" y1="42.5" x2="73.2" y2="79"/>
	</g>
</g>
<g id="Calque_41" class="st0">
	<g class="st1">
		<polyline class="st21" points="20.6,48.2 31,48.2 39.6,77.7 		"/>
		<circle class="st21" cx="51.1" cy="95.6" r="21.5"/>
		<circle class="st21" cx="51.1" cy="95.6" r="4.5"/>
		<line class="st21" x1="51.1" y1="100.1" x2="51.1" y2="117.1"/>
		<line class="st21" x1="51.1" y1="74.1" x2="51.1" y2="91.1"/>
		<line class="st21" x1="54.4" y1="98.9" x2="66.3" y2="110.8"/>
		<line class="st21" x1="35.9" y1="80.4" x2="47.9" y2="92.4"/>
		<line class="st21" x1="55.6" y1="95.6" x2="72.6" y2="95.6"/>
		<line class="st21" x1="29.6" y1="95.6" x2="46.6" y2="95.6"/>
		<line class="st21" x1="54.2" y1="92.4" x2="66.3" y2="80.4"/>
		<line class="st21" x1="35.9" y1="110.8" x2="47.8" y2="98.9"/>
		<circle class="st21" cx="87.7" cy="109.4" r="7.5"/>
		<circle class="st21" cx="87.7" cy="109.4" r="2.1"/>
		<polyline class="st21" points="71.9,90.2 80.6,90.2 85.4,102.1 		"/>
		<path class="st21" d="M95.1,109.4H107c0,0,1.7-7.5-9.7-7.5c-4-9.3-10.2-28-10.2-28l-5.2-0.7"/>
		<path class="st21" d="M43.6,75.5c0,0-7.1-16.7-2.3-29.5c3.8-10.2,6.4-14,4-22.6s3-13.5,8.7-12.2c6.4,1.4,9.1,1.8,9.2,4.1
			c0.9,3.8-0.6,6-4.9,6s-7.1-0.2-7.4,2.4c-0.2,2.6-0.2,5.2-0.2,5.2l-4.4,1"/>
		<path class="st21" d="M62,20.3c0,0,2,11.8,0.3,13.9S59,36.3,59,36.3l-5.7-1.4"/>
		<path class="st21" d="M45,36.8c0,0,6.6,6.1,12.8,4.5c3.8,2.4,4.7,6.9,5.9,13.1s0.5,8.5,5.5,10.7s11.2,3.8,11.9,5.9
			c0.7,2.1-0.9,6.6-7.8,4.3c-6.9-2.4-14-8.1-14-8.1l-5.9-10.9"/>
		<line class="st21" x1="75.4" y1="68.4" x2="72.8" y2="74.3"/>
		<line class="st21" x1="69.4" y1="84.3" x2="79.7" y2="84.3"/>
		<path class="st21" d="M55.9,35.6c0,0-1.4,2.9,0.1,5.9"/>
	</g>
</g>
<g id="Calque_42" class="st0">
	<g class="st1">
		<g>
			<path class="st21" d="M51.4,67.1c0,6.5,5.3,11.8,11.8,11.8S75,73.6,75,67.1c0-10.4-10.6-17.5-11.8-28.2
				C61.5,49.8,51.4,57.6,51.4,67.1"/>
			<path class="st21" d="M81.1,16.8h-7.7c-0.3-5.2-4.7-9.3-10-9.3s-9.7,4.1-10,9.3h-6.8c-6.1,0-11,4.9-11,10.9V84
				c0,6,4.9,10.9,11,10.9h34.5c6.1,0,11-4.9,11-10.9V27.6C92.1,21.7,87.1,16.8,81.1,16.8z"/>
			<path class="st21" d="M63.2,20.5c2.4,0,4.3-1.9,4.3-4.3s-1.9-4.3-4.3-4.3c-2.4,0-4.3,1.9-4.3,4.3S60.9,20.5,63.2,20.5"/>
		</g>
		<g>
			<polyline class="st21" points="57.8,95.2 57.8,100.9 69.8,100.9 69.8,95.2 			"/>
		</g>
		<line class="st21" x1="63.6" y1="101.7" x2="63.6" y2="120.7"/>
	</g>
</g>
</svg>
